<?xml version="1.0" encoding="utf-8"?>
<!-- Svg Vector Icons : http://www.onlinewebfonts.com/icon -->
<!DOCTYPE svg PUBLIC "-//W3C//DTD SVG 1.1//EN" "http://www.w3.org/Graphics/SVG/1.1/DTD/svg11.dtd">
<svg version="1.1" xmlns="http://www.w3.org/2000/svg" xmlns:xlink="http://www.w3.org/1999/xlink" x="0px" y="0px" viewBox="0 0 1000 1000" enable-background="new 0 0 1000 1000" xml:space="preserve">
<metadata> Svg Vector Icons : http://www.onlinewebfonts.com/icon </metadata>
<g><g transform="translate(0.000000,511.000000) scale(0.100000,-0.100000)"><path d="M1451.2,4974.6c-96.7-42.4-195.7-162.7-212.2-257c-7.1-42.4-9.4-2145.8-7.1-4678.4l7.1-4602.9l49.5-63.6c25.9-35.4,77.8-87.3,113.2-113.2c63.7-49.5,66-49.5,3598.4-49.5c3532.3,0,3534.7,0,3598.3,49.5c35.4,26,87.3,77.8,113.2,113.2c49.5,63.6,49.5,70.7,56.6,3723.3c2.4,2013.8,0,3697.4-7.1,3742.2c-11.8,70.7-167.4,235.8-1021,1094.1C7169.4,4503,6700.1,4955.8,6657.7,4974.6C6546.9,5021.8,1559.6,5021.8,1451.2,4974.6z M6320.5,3463.1v-792.3l59-56.6l56.6-59h792.3h789.9V-746v-3301.2H5000H1981.7V102.9v4150.1h2169.4h2169.4V3463.1z M7193,3416l483.4-483.4h-490.5h-488.1V3416c0,266.5,2.4,483.4,7.1,483.4C6707.2,3899.4,6926.5,3682.4,7193,3416z"/><path d="M2983.9,2873.6c-37.7-35.4-59-84.9-59-129.7s21.2-94.3,59-129.7l56.6-59h1393.6h1393.6l56.6,59c37.7,35.4,58.9,84.9,58.9,129.7s-21.2,94.3-58.9,129.7l-56.6,59H4434.1H3040.5L2983.9,2873.6z"/><path d="M2983.9,1741.8c-37.7-35.4-59-84.9-59-129.7c0-44.8,21.2-94.3,59-129.7l56.6-58.9H5000h1959.5l56.6,58.9c37.7,35.4,58.9,84.9,58.9,129.7c0,44.8-21.2,94.3-58.9,129.7l-56.6,59H5000H3040.5L2983.9,1741.8z"/><path d="M2983.9,609.9c-37.7-35.4-59-84.9-59-129.7c0-44.8,21.2-94.3,59-129.7l56.6-58.9H5000h1959.5l56.6,58.9c37.7,35.4,58.9,84.9,58.9,129.7c0,44.8-21.2,94.3-58.9,129.7l-56.6,59H5000H3040.5L2983.9,609.9z"/><path d="M2983.9-522c-37.7-35.4-59-84.9-59-129.7c0-44.8,21.2-94.3,59-129.7l56.6-59H5000h1959.5l56.6,59c37.7,35.4,58.9,84.9,58.9,129.7c0,44.8-21.2,94.3-58.9,129.7l-56.6,58.9H5000H3040.5L2983.9-522z"/><path d="M2983.9-1653.8c-37.7-35.4-59-84.9-59-129.7c0-44.8,21.2-94.3,59-129.7l56.6-58.9H5000h1959.5l56.6,58.9c37.7,35.4,58.9,84.9,58.9,129.7c0,44.8-21.2,94.3-58.9,129.7l-56.6,58.9H5000H3040.5L2983.9-1653.8z"/><path d="M2983.9-2785.7c-37.7-35.4-59-84.9-59-129.7c0-44.8,21.2-94.3,59-129.7l56.6-59H5000h1959.5l56.6,59c37.7,35.4,58.9,84.9,58.9,129.7c0,44.8-21.2,94.3-58.9,129.7l-56.6,59H5000H3040.5L2983.9-2785.7z"/></g></g>
</svg>